<svg xmlns="http://www.w3.org/2000/svg" width="24" height="22" viewBox="0 0 24 22">
  <g id="transfer" transform="translate(0 -1)">
    <path id="Path_13229" data-name="Path 13229" d="M23.25,15a.75.75,0,0,1-.75-.75A5.256,5.256,0,0,0,17.25,9H10v3.25a.751.751,0,0,1-1.268.542l-5.5-5.25a.749.749,0,0,1,0-1.084l5.5-5.25A.751.751,0,0,1,10,1.75V5h6.25A7.759,7.759,0,0,1,24,12.75v1.5A.75.75,0,0,1,23.25,15Z"/>
    <path id="Path_13230" data-name="Path 13230" d="M14,22.25V19H7.75A7.759,7.759,0,0,1,0,11.25V9.75a.75.75,0,0,1,1.5,0A5.256,5.256,0,0,0,6.75,15H14V11.75a.751.751,0,0,1,1.268-.542l5.5,5.25a.749.749,0,0,1,0,1.084l-5.5,5.25A.751.751,0,0,1,14,22.25Z" fill="#fdc901"/>
  </g>
</svg>
