<svg xmlns="http://www.w3.org/2000/svg" width="36.768" height="37.165" viewBox="0 0 36.768 37.165">
  <g id="_001-bar-chart" data-name="001-bar-chart" transform="translate(-2.003 0)">
    <g id="Group_26" data-name="Group 26" transform="translate(2.003 0)">
      <g id="Group_25" data-name="Group 25" transform="translate(0 0)">
        <path id="Path_56" data-name="Path 56" d="M150.531,218.936H143.7a1.035,1.035,0,0,0-1.035,1.035v13.405a1.035,1.035,0,0,0,1.035,1.035h6.832a1.035,1.035,0,0,0,1.035-1.035V219.971A1.035,1.035,0,0,0,150.531,218.936ZM149.5,232.341h-4.762V221.006H149.5Z" transform="translate(-128.729 -197.247)" fill="#205b76"/>
        <path id="Path_57" data-name="Path 57" d="M286.942,136.911h-6.884a1.035,1.035,0,0,0-1.035,1.035v21.531a1.035,1.035,0,0,0,1.035,1.035h6.884a1.035,1.035,0,0,0,1.035-1.035V137.946A1.035,1.035,0,0,0,286.942,136.911Zm-1.035,21.531h-4.813V138.981h4.813Z" transform="translate(-251.58 -123.348)" fill="#205b76"/>
        <path id="Path_58" data-name="Path 58" d="M13.7,269.613H6.817a1.035,1.035,0,0,0-1.035,1.035v8.385a1.035,1.035,0,0,0,1.035,1.035H13.7a1.035,1.035,0,0,0,1.035-1.035v-8.385A1.035,1.035,0,0,0,13.7,269.613ZM12.666,278H7.852v-6.314h4.813V278Z" transform="translate(-5.408 -242.903)" fill="#205b76"/>
        <path id="Path_59" data-name="Path 59" d="M38.5,1.038a.88.88,0,0,0-.673-.362L28.411,0a1.038,1.038,0,0,0-.155,2.07l6.667.453L22.666,12.114,13.3,4.765a1.035,1.035,0,0,0-1.346.052L2.325,14.029a1.035,1.035,0,0,0-.052,1.449.932.932,0,0,0,.776.362,1.035,1.035,0,0,0,.725-.311l8.954-8.592,9.265,7.3a1.035,1.035,0,0,0,1.294,0L36.537,3.926l-.518,6.429A1.087,1.087,0,0,0,37,11.441h.052a1.035,1.035,0,0,0,1.035-.932l.673-8.747A.828.828,0,0,0,38.5,1.038Z" transform="translate(-2.003 0)" fill="#205b76"/>
      </g>
    </g>
  </g>
</svg>
