<svg id="_001-calendar" data-name="001-calendar" xmlns="http://www.w3.org/2000/svg" width="18.442" height="18.442" viewBox="0 0 18.442 18.442">
  <path id="Path_66" data-name="Path 66" d="M16.065,1.441H14.408V.576a.576.576,0,0,0-1.153,0v.864H5.187V.576a.576.576,0,0,0-1.153,0v.864H2.377A2.38,2.38,0,0,0,0,3.818V16.065a2.38,2.38,0,0,0,2.377,2.377H16.065a2.38,2.38,0,0,0,2.377-2.377V3.818A2.38,2.38,0,0,0,16.065,1.441Zm1.225,14.624a1.225,1.225,0,0,1-1.225,1.225H2.377a1.225,1.225,0,0,1-1.225-1.225V6.519a.18.18,0,0,1,.18-.18H17.109a.18.18,0,0,1,.18.18Z" fill="#fff"/>
</svg>
