<svg xmlns="http://www.w3.org/2000/svg" width="22.907" height="16.212" viewBox="0 0 22.907 16.212">
  <g id="_003-sports-car" data-name="003-sports-car" transform="translate(0 -5.707)">
    <g id="Group_4" data-name="Group 4" transform="translate(0 5.707)">
      <path id="Path_24" data-name="Path 24" d="M22.775,10.724a.589.589,0,0,0-.455-.216H20.091A7.6,7.6,0,0,0,18.01,7.1C15.192,5.244,7.716,5.244,4.9,7.1a7.638,7.638,0,0,0-2.082,3.409H.586a.587.587,0,0,0-.574.706l.33,1.6a.586.586,0,0,0,.574.467h.66a3.96,3.96,0,0,0-.951,2.588A3.877,3.877,0,0,0,1.852,18.78c.009.008.018.013.026.021v2.239a.88.88,0,0,0,.88.88H4.814a.88.88,0,0,0,.88-.88v-.9h11.52v.9a.88.88,0,0,0,.88.88h2.056a.881.881,0,0,0,.88-.88V18.845a4.024,4.024,0,0,0,.257-5.566h.7a.584.584,0,0,0,.574-.468l.331-1.6A.591.591,0,0,0,22.775,10.724ZM5.864,8.567c2.246-1.479,8.932-1.479,11.177,0a7.253,7.253,0,0,1,1.512,2.86H4.353A7.254,7.254,0,0,1,5.864,8.567ZM3.233,16.089A1.731,1.731,0,1,1,4.964,17.82,1.731,1.731,0,0,1,3.233,16.089ZM17.966,17.82A1.731,1.731,0,1,1,19.7,16.089,1.731,1.731,0,0,1,17.966,17.82Z" transform="translate(0 -5.707)" fill="#fff"/>
    </g>
  </g>
</svg>
