<svg xmlns="http://www.w3.org/2000/svg" width="19.253" height="25.276" viewBox="0 0 19.253 25.276">
  <g id="google-docs" transform="translate(-61)">
    <path id="Path_13480" data-name="Path 13480" d="M80.036,6.141,74.112.217A.742.742,0,0,0,73.589,0H63.222A2.224,2.224,0,0,0,61,2.222V23.055a2.224,2.224,0,0,0,2.222,2.222h14.81a2.224,2.224,0,0,0,2.222-2.222V6.665A.747.747,0,0,0,80.036,6.141ZM74.329,2.528l3.4,3.4H75.07a.741.741,0,0,1-.741-.741Zm3.7,21.267H63.222a.741.741,0,0,1-.741-.741V2.222a.741.741,0,0,1,.741-.741h9.627v3.7A2.224,2.224,0,0,0,75.07,7.405h3.7V23.055A.741.741,0,0,1,78.032,23.8Z" transform="translate(0 0)" fill="#1f1f1f"/>
    <path id="Path_13481" data-name="Path 13481" d="M160.627,212h-8.886a.741.741,0,1,0,0,1.481h8.886a.741.741,0,1,0,0-1.481Z" transform="translate(-85.557 -201.534)" fill="#1f1f1f"/>
    <path id="Path_13482" data-name="Path 13482" d="M160.627,272h-8.886a.741.741,0,1,0,0,1.481h8.886a.741.741,0,1,0,0-1.481Z" transform="translate(-85.557 -258.572)" fill="#1f1f1f"/>
    <path id="Path_13483" data-name="Path 13483" d="M160.627,332h-8.886a.741.741,0,1,0,0,1.481h8.886a.741.741,0,1,0,0-1.481Z" transform="translate(-85.557 -315.61)" fill="#1f1f1f"/>
    <path id="Path_13484" data-name="Path 13484" d="M157.665,392h-5.924a.741.741,0,1,0,0,1.481h5.924a.741.741,0,0,0,0-1.481Z" transform="translate(-85.557 -372.648)" fill="#1f1f1f"/>
  </g>
</svg>
