<svg xmlns="http://www.w3.org/2000/svg" width="13.495" height="23.862" viewBox="0 0 13.495 23.862">
  <path id="繳費紀錄" d="M16.745,14.973c-3.009-.782-3.977-1.591-3.977-2.85,0-1.445,1.339-2.452,3.579-2.452,2.36,0,3.235,1.127,3.314,2.784h2.93A5.284,5.284,0,0,0,18.335,7.4V4.5H14.358V7.363c-2.572.557-4.64,2.227-4.64,4.786,0,3.062,2.532,4.587,6.231,5.475,3.314.8,3.977,1.962,3.977,3.195,0,.915-.65,2.373-3.579,2.373-2.731,0-3.8-1.22-3.95-2.784H9.48c.159,2.9,2.333,4.534,4.878,5.077v2.877h3.977v-2.85c2.585-.49,4.64-1.988,4.64-4.706C22.975,17.041,19.754,15.755,16.745,14.973Z" transform="translate(-9.48 -4.5)" fill="#1f1f1f"/>
</svg>
