<svg xmlns="http://www.w3.org/2000/svg" width="22.988" height="18.642" viewBox="0 0 22.988 18.642">
  <g id="folder" transform="translate(0 -48.403)">
    <g id="Group_11919" data-name="Group 11919" transform="translate(0 48.403)">
      <g id="Group_11918" data-name="Group 11918" transform="translate(0 0)">
        <path id="Path_15809" data-name="Path 15809" d="M18.122,50.079H6.265a.665.665,0,0,1-.665-.665v-.333a.678.678,0,0,0-.678-.678H1.356A1.356,1.356,0,0,0,0,49.759V61.171L1.74,52.7a.665.665,0,0,1,.651-.531H19.478v-.738A1.356,1.356,0,0,0,18.122,50.079Z" transform="translate(0 -48.403)" fill="#333"/>
      </g>
    </g>
    <g id="Group_11921" data-name="Group 11921" transform="translate(0.303 53.504)">
      <g id="Group_11920" data-name="Group 11920" transform="translate(0 0)">
        <path id="Path_15810" data-name="Path 15810" d="M28.074,162.01H9.377L6.76,174.742a.673.673,0,0,0,.66.809H26.876a1.356,1.356,0,0,0,1.348-1.207l1.2-10.828A1.356,1.356,0,0,0,28.074,162.01Z" transform="translate(-6.746 -162.01)" fill="#333"/>
      </g>
    </g>
  </g>
</svg>
