<svg xmlns="http://www.w3.org/2000/svg" width="30.174" height="23" viewBox="0 0 30.174 23">
  <g id="image" transform="translate(0 -72.087)">
    <g id="Group_11888" data-name="Group 11888" transform="translate(0 72.087)">
      <g id="Group_11885" data-name="Group 11885">
        <path id="Path_13027" data-name="Path 13027" d="M27.731,76.158h-.678V75.48a2.9,2.9,0,0,0-2.893-2.893H3.393A2.9,2.9,0,0,0,.5,75.48V89.073a2.9,2.9,0,0,0,2.893,2.893h.678v.678a2.9,2.9,0,0,0,2.893,2.893H27.731a2.9,2.9,0,0,0,2.893-2.893V79.051A2.9,2.9,0,0,0,27.731,76.158Zm.761,16.486a.761.761,0,0,1-.761.761H6.964a.761.761,0,0,1-.761-.761V79.051a.761.761,0,0,1,.761-.761H27.731a.761.761,0,0,1,.761.761V92.644ZM2.632,89.073V75.48a.761.761,0,0,1,.761-.761H24.161a.761.761,0,0,1,.761.761v.678H6.964a2.9,2.9,0,0,0-2.893,2.893V89.834H3.393A.761.761,0,0,1,2.632,89.073Z" transform="translate(-0.475 -72.562)" fill="#1f1f1f"/>
        <path id="Path_13028" data-name="Path 13028" d="M27.256,95.087H6.489a2.921,2.921,0,0,1-2.918-2.918v-.653H2.918A2.921,2.921,0,0,1,0,88.6V75.005a2.921,2.921,0,0,1,2.918-2.918H23.685A2.921,2.921,0,0,1,26.6,75.005v.653h.653a2.921,2.921,0,0,1,2.918,2.918V92.169A2.921,2.921,0,0,1,27.256,95.087ZM2.918,72.137A2.872,2.872,0,0,0,.05,75.005V88.6a2.872,2.872,0,0,0,2.868,2.868h.7v.7a2.872,2.872,0,0,0,2.868,2.868H27.256a2.872,2.872,0,0,0,2.868-2.868V78.576a2.871,2.871,0,0,0-2.868-2.868h-.7v-.7a2.872,2.872,0,0,0-2.868-2.868H2.918ZM27.256,92.955H6.489a.787.787,0,0,1-.786-.786V78.576a.787.787,0,0,1,.786-.786H27.256a.787.787,0,0,1,.786.786V92.169A.787.787,0,0,1,27.256,92.955ZM6.489,77.839a.737.737,0,0,0-.736.736V92.169a.737.737,0,0,0,.736.736H27.256a.737.737,0,0,0,.736-.736V78.576a.737.737,0,0,0-.736-.736ZM3.621,89.384h-.7a.787.787,0,0,1-.786-.786V75.005a.787.787,0,0,1,.786-.786H23.685a.787.787,0,0,1,.786.786v.7H6.489a2.872,2.872,0,0,0-2.868,2.868V89.384Zm-.7-15.116a.737.737,0,0,0-.736.737V88.6a.737.737,0,0,0,.737.736h.653V78.576a2.921,2.921,0,0,1,2.918-2.918H24.422v-.653a.737.737,0,0,0-.736-.736H2.918Z" transform="translate(0 -72.087)" fill="#1f1f1f"/>
      </g>
      <g id="Group_11886" data-name="Group 11886" transform="translate(7.175 11.665)">
        <path id="Path_13029" data-name="Path 13029" d="M162.463,313l-.7-.7-3.4-3.4a.761.761,0,0,0-1.077,0l-1.93,1.93-3.605-3.605a.761.761,0,0,0-1.077,0l-5.359,5.359L144.9,313a.761.761,0,0,0,0,1.077l.431.431a.762.762,0,0,0,1.077,0l.856-.856,1.066-1.066,2.344-2.344a.761.761,0,0,1,1.077,0l2.344,2.344,1.066,1.066.856.856a.762.762,0,0,0,1.077,0l.431-.431a.762.762,0,0,0,0-1.077l-.414-.414-.246-.247.961-.961,1.207,1.207,1.066,1.066.855.856a.762.762,0,0,0,1.077,0l.431-.431a.762.762,0,0,0,.051-1.02Q162.49,313.024,162.463,313Z" transform="translate(-144.655 -306.975)" fill="#1f1f1f"/>
        <path id="Path_13030" data-name="Path 13030" d="M156.084,314.278a.791.791,0,0,1-.142-.013.781.781,0,0,1-.414-.217l-4.266-4.266a.736.736,0,0,0-1.042,0l-4.266,4.266a.781.781,0,0,1-.414.217.8.8,0,0,1-.284,0,.781.781,0,0,1-.414-.217l-.431-.431a.78.78,0,0,1-.222-.439.79.79,0,0,1,.222-.673l5.773-5.773a.786.786,0,0,1,1.112,0l3.588,3.588,1.912-1.912a.786.786,0,0,1,1.112,0l4.1,4.1c.018.018.036.038.053.058a.783.783,0,0,1-.053,1.054l-.431.431a.786.786,0,0,1-.556.23h0a.786.786,0,0,1-.556-.23l-3.111-3.111-.926.926.643.643a.79.79,0,0,1,.221.673.78.78,0,0,1-.221.439l-.431.431a.782.782,0,0,1-.414.217A.8.8,0,0,1,156.084,314.278Zm-5.343-4.762a.781.781,0,0,1,.556.23l4.266,4.266a.732.732,0,0,0,.388.2.743.743,0,0,0,.266,0,.732.732,0,0,0,.388-.2l.431-.431a.731.731,0,0,0,.207-.411.74.74,0,0,0-.207-.631l-.678-.678,1-1,3.146,3.146a.734.734,0,0,0,.364.2.736.736,0,0,0,.677-.2l.431-.431a.734.734,0,0,0,.05-.987c-.016-.019-.033-.038-.05-.055l-4.1-4.1a.737.737,0,0,0-1.042,0l-1.948,1.948-3.623-3.623a.736.736,0,0,0-1.042,0l-5.773,5.773a.74.74,0,0,0-.207.631.731.731,0,0,0,.207.411l.431.431a.732.732,0,0,0,.388.2.743.743,0,0,0,.266,0,.732.732,0,0,0,.388-.2l4.266-4.266A.781.781,0,0,1,150.741,309.517Z" transform="translate(-144.182 -306.502)" fill="#1f1f1f"/>
      </g>
      <g id="Group_11887" data-name="Group 11887" transform="translate(20.413 6.833)">
        <path id="Path_13031" data-name="Path 13031" d="M414.721,210.106a2.946,2.946,0,1,0,1.066.722A2.923,2.923,0,0,0,414.721,210.106Zm-1.071,3.541a.806.806,0,1,1,.806-.806A.806.806,0,0,1,413.65,213.647Z" transform="translate(-410.687 -209.879)" fill="#1f1f1f"/>
        <path id="Path_13032" data-name="Path 13032" d="M413.174,215.328a2.953,2.953,0,1,1,1.08-.2A2.966,2.966,0,0,1,413.174,215.328Zm0-5.875a2.9,2.9,0,1,0,1.062.2A2.916,2.916,0,0,0,413.174,209.453Zm0,3.743a.831.831,0,1,1,.831-.831A.832.832,0,0,1,413.173,213.2Zm0-1.612a.781.781,0,1,0,.781.781A.782.782,0,0,0,413.173,211.585Z" transform="translate(-410.211 -209.403)" fill="#1f1f1f"/>
      </g>
    </g>
  </g>
</svg>
