<svg xmlns="http://www.w3.org/2000/svg" width="22.538" height="29.298" viewBox="0 0 22.538 29.298">
  <g id="shield" transform="translate(-60.5 0.522)">
    <path id="Path_13457" data-name="Path 13457" d="M81.71,3.314A15.538,15.538,0,0,1,73.063.7L72.229.14a.829.829,0,0,0-.919,0L70.475.7a15.538,15.538,0,0,1-8.646,2.618A.828.828,0,0,0,61,4.142V13.6A15.424,15.424,0,0,0,71.507,28.234a.828.828,0,0,0,.524,0A15.425,15.425,0,0,0,82.538,13.6V4.142A.828.828,0,0,0,81.71,3.314ZM80.881,13.6a13.731,13.731,0,0,1-9.112,12.971A13.731,13.731,0,0,1,62.657,13.6V4.951a17.183,17.183,0,0,0,8.737-2.876l.375-.25.375.25a17.183,17.183,0,0,0,8.737,2.876Z" transform="translate(0 0)" fill="#333" stroke="#333" stroke-width="1"/>
    <path id="Path_13458" data-name="Path 13458" d="M212.657,211.828v.828h-.828a.828.828,0,1,0,0,1.657h.828v.828a.828.828,0,1,0,1.657,0v-.828h.828a.828.828,0,1,0,0-1.657h-.828v-.828a.828.828,0,1,0-1.657,0Z" transform="translate(-141.716 -199.347)" fill="#333" stroke="#333" stroke-width="1"/>
    <path id="Path_13459" data-name="Path 13459" d="M151,156.8a5.8,5.8,0,1,0,5.8-5.8A5.805,5.805,0,0,0,151,156.8Zm9.941,0a4.142,4.142,0,1,1-4.142-4.142A4.147,4.147,0,0,1,160.941,156.8Z" transform="translate(-85.03 -142.66)" fill="#333" stroke="#333" stroke-width="1"/>
  </g>
</svg>
