<svg xmlns="http://www.w3.org/2000/svg" width="22.709" height="25.37" viewBox="0 0 22.709 25.37">
  <g id="_007-user" data-name="007-user" transform="translate(-24.165)">
    <g id="Group_11" data-name="Group 11" transform="translate(28.934)">
      <g id="Group_10" data-name="Group 10" transform="translate(0)">
        <path id="Path_30" data-name="Path 30" d="M117.378,0a6.587,6.587,0,1,0,6.587,6.587A6.6,6.6,0,0,0,117.378,0Z" transform="translate(-110.791)" fill="#f2c828"/>
      </g>
    </g>
    <g id="Group_13" data-name="Group 13" transform="translate(24.165 13.645)">
      <g id="Group_12" data-name="Group 12" transform="translate(0)">
        <path id="Path_31" data-name="Path 31" d="M46.825,252.633a6.142,6.142,0,0,0-.662-1.208,8.187,8.187,0,0,0-5.666-3.567,1.212,1.212,0,0,0-.834.2,7.021,7.021,0,0,1-8.284,0,1.079,1.079,0,0,0-.834-.2,8.128,8.128,0,0,0-5.666,3.567,7.081,7.081,0,0,0-.662,1.208.612.612,0,0,0,.029.547,11.473,11.473,0,0,0,.777,1.151,10.933,10.933,0,0,0,1.323,1.5,17.235,17.235,0,0,0,1.323,1.151,13.117,13.117,0,0,0,15.647,0,12.646,12.646,0,0,0,1.323-1.151,13.282,13.282,0,0,0,1.323-1.5,10.081,10.081,0,0,0,.777-1.151A.491.491,0,0,0,46.825,252.633Z" transform="translate(-24.165 -247.841)" fill="#f2c828"/>
      </g>
    </g>
  </g>
</svg>
