<svg xmlns="http://www.w3.org/2000/svg" width="29.276" height="29.001" viewBox="0 0 29.276 29.001">
  <g id="Group_13299" data-name="Group 13299" transform="translate(-370.306 -934)">
    <path id="Path_15836" data-name="Path 15836" d="M28.976,48.136a1.232,1.232,0,0,0-.759-.251H26.7a.947.947,0,0,0-.944.861,9.772,9.772,0,0,1-19.464,0,.947.947,0,0,0-.944-.861l-.34-3.791A1.2,1.2,0,0,0,3.812,43H1.4a1.221,1.221,0,0,0-1.23,1.158,1.2,1.2,0,0,0,1.2,1.246H2.712L4.03,60.087c0,.017,0,.034,0,.052a1.21,1.21,0,0,0,.016.136l.048.537c0,.01,0,.02,0,.03a4.628,4.628,0,0,0,1.728,3.1,3.644,3.644,0,1,0,6.3,1h6.581a3.645,3.645,0,1,0,7.072,1.289,3.679,3.679,0,0,0-3.7-3.693H8.705a2.233,2.233,0,0,1-2.053-1.354L25.868,60.06a1.2,1.2,0,0,0,1.1-.909l2.443-9.772a1.2,1.2,0,0,0-.431-1.243Z" transform="translate(370.14 893.168)" fill="#333"/>
    <g id="add" transform="translate(379 934)">
      <g id="Group_13298" data-name="Group 13298">
        <path id="Path_15838" data-name="Path 15838" d="M7.209,0A7.209,7.209,0,0,0,0,7.153a7.257,7.257,0,0,0,7.209,7.209A7.181,7.181,0,0,0,7.209,0ZM11,7.994H8.05v3a.841.841,0,1,1-1.683,0v-3h-3a.841.841,0,0,1,0-1.683h3V3.366a.841.841,0,1,1,1.683,0V6.311H11a.841.841,0,0,1,0,1.683Z" fill="#333"/>
      </g>
    </g>
  </g>
</svg>
