<svg xmlns="http://www.w3.org/2000/svg" width="29.906" height="29.784" viewBox="0 0 29.906 29.784">
  <g id="settings_2_" data-name="settings (2)" transform="translate(0 -0.114)">
    <g id="Group_13294" data-name="Group 13294" transform="translate(0 8.555)">
      <g id="Group_13293" data-name="Group 13293">
        <path id="Path_15829" data-name="Path 15829" d="M19.665,27.334a8.952,8.952,0,0,0-.057-2.164l1.639-.731A10.8,10.8,0,0,0,19.269,20l-1.64.73a8.981,8.981,0,0,0-1.57-1.49l.643-1.675a10.844,10.844,0,0,0-4.541-1.745l-.643,1.677a8.952,8.952,0,0,0-2.164.057l-.726-1.631a10.836,10.836,0,0,0-4.44,1.99l.721,1.62A8.966,8.966,0,0,0,3.417,21.1l-1.671-.641a10.651,10.651,0,0,0-1.136,2.17A10.964,10.964,0,0,0,0,25l1.675.643A8.952,8.952,0,0,0,1.732,27.8l-1.639.73a10.787,10.787,0,0,0,1.979,4.444l1.639-.73a8.949,8.949,0,0,0,1.571,1.49l-.643,1.676A10.844,10.844,0,0,0,9.18,37.16l.643-1.677a8.979,8.979,0,0,0,2.164-.058l.726,1.63a10.835,10.835,0,0,0,4.44-1.99l-.722-1.62a8.967,8.967,0,0,0,1.491-1.57l1.67.641a10.661,10.661,0,0,0,1.136-2.17,10.847,10.847,0,0,0,.612-2.37Zm-4.453.9a4.865,4.865,0,1,1-2.8-6.285A4.866,4.866,0,0,1,15.213,28.23Z" transform="translate(0 -15.816)" fill="#333"/>
      </g>
    </g>
    <g id="Group_13296" data-name="Group 13296" transform="translate(17.15 0.114)">
      <g id="Group_13295" data-name="Group 13295">
        <path id="Path_15830" data-name="Path 15830" d="M43.494,6.716a5.232,5.232,0,0,0-.09-.951l1.256-.726a6.594,6.594,0,0,0-1.735-3.011l-1.259.727a5.176,5.176,0,0,0-1.647-.949V.353a6.429,6.429,0,0,0-3.475,0V1.807a5.192,5.192,0,0,0-1.647.949l-1.26-.727A6.608,6.608,0,0,0,31.9,5.04l1.257.726a5.022,5.022,0,0,0,0,1.9L31.9,8.393A6.605,6.605,0,0,0,33.638,11.4l1.259-.727a5.182,5.182,0,0,0,1.647.949v1.454a6.429,6.429,0,0,0,3.475,0V11.626a5.186,5.186,0,0,0,1.647-.949l1.259.727a6.594,6.594,0,0,0,1.735-3.011L43.4,7.667A5.2,5.2,0,0,0,43.494,6.716ZM38.282,9.149a2.433,2.433,0,1,1,2.432-2.433A2.433,2.433,0,0,1,38.282,9.149Z" transform="translate(-31.903 -0.114)" fill="#333"/>
      </g>
    </g>
  </g>
</svg>
