<svg xmlns="http://www.w3.org/2000/svg" width="23.64" height="23.642" viewBox="0 0 23.64 23.642">
  <path id="_001-home" data-name="001-home" d="M23,10.283l0,0L13.359.638a2.176,2.176,0,0,0-3.078,0L.641,10.277l-.01.01A2.176,2.176,0,0,0,2.08,13.995q.033,0,.067,0h.384v7.1a2.55,2.55,0,0,0,2.547,2.547H8.852a.693.693,0,0,0,.693-.693V17.385a1.163,1.163,0,0,1,1.162-1.162h2.225a1.163,1.163,0,0,1,1.162,1.162V22.95a.693.693,0,0,0,.693.693H18.56A2.55,2.55,0,0,0,21.108,21.1V14h.356A2.177,2.177,0,0,0,23,10.283Zm0,0" transform="translate(0.001)" fill="#333"/>
</svg>
