<svg xmlns="http://www.w3.org/2000/svg" width="23.616" height="29.785" viewBox="0 0 23.616 29.785">
  <g id="_005-shopping-bag" data-name="005-shopping-bag" transform="translate(-53.023)">
    <g id="Group_7" data-name="Group 7" transform="translate(53.023 5.876)">
      <g id="Group_6" data-name="Group 6">
        <path id="Path_26" data-name="Path 26" d="M76.625,119.691,75.3,102.93A2.094,2.094,0,0,0,73.216,101H70.589V104.9a.872.872,0,1,1-1.745,0V101H60.819V104.9a.872.872,0,1,1-1.745,0V101H56.447a2.094,2.094,0,0,0-2.079,1.923l-1.331,16.765a4.85,4.85,0,0,0,4.836,5.221H71.79a4.85,4.85,0,0,0,4.835-5.223Zm-7.864-8.535-4.512,4.512a.872.872,0,0,1-1.234,0L60.9,113.553a.872.872,0,1,1,1.233-1.233l1.5,1.5,3.9-3.9a.872.872,0,1,1,1.233,1.234Z" transform="translate(-53.023 -101.005)" fill="#f2c828"/>
      </g>
    </g>
    <g id="Group_9" data-name="Group 9" transform="translate(59.074)">
      <g id="Group_8" data-name="Group 8">
        <path id="Path_27" data-name="Path 27" d="M162.8,0a5.764,5.764,0,0,0-5.757,5.758v.118h1.745V5.758a4.013,4.013,0,1,1,8.025,0v.118h1.745V5.758A5.764,5.764,0,0,0,162.8,0Z" transform="translate(-157.039)" fill="#f2c828"/>
      </g>
    </g>
  </g>
</svg>
