<svg id="_004-cancel" data-name="004-cancel" xmlns="http://www.w3.org/2000/svg" width="19.558" height="19.558" viewBox="0 0 19.558 19.558">
  <g id="Group_5" data-name="Group 5">
    <path id="Path_25" data-name="Path 25" d="M9.741,0a9.817,9.817,0,0,1,9.817,9.741,9.883,9.883,0,0,1-9.817,9.817A9.779,9.779,0,0,1,9.741,0ZM4.919,12.941A1.146,1.146,0,1,0,6.54,14.563l3.2-3.2,3.277,3.2a1.146,1.146,0,0,0,1.621-1.621l-3.2-3.2,3.2-3.2a1.146,1.146,0,0,0-1.621-1.621L9.741,8.12l-3.2-3.2A1.146,1.146,0,1,0,4.919,6.54l3.2,3.2Z" fill="#f2c828"/>
  </g>
</svg>
