<svg xmlns="http://www.w3.org/2000/svg" width="23.644" height="23.643" viewBox="0 0 23.644 23.643">
  <g id="_014-logout" data-name="014-logout" transform="translate(0 -0.004)">
    <path id="Path_51" data-name="Path 51" d="M14.777,12.811a.985.985,0,0,0-.985.985v3.941a.986.986,0,0,1-.985.985H9.851V3.944A1.986,1.986,0,0,0,8.51,2.072l-.292-.1h4.589a.986.986,0,0,1,.985.985V5.915a.985.985,0,1,0,1.97,0V2.959A2.959,2.959,0,0,0,12.807,0H2.217a.774.774,0,0,0-.105.022C2.064.022,2.019,0,1.97,0A1.972,1.972,0,0,0,0,1.974V19.707a1.986,1.986,0,0,0,1.342,1.873L7.27,23.556a2.04,2.04,0,0,0,.611.092,1.972,1.972,0,0,0,1.97-1.97v-.985h2.955a2.959,2.959,0,0,0,2.955-2.955V13.8A.985.985,0,0,0,14.777,12.811Zm0,0" fill="#333"/>
    <path id="Path_52" data-name="Path 52" d="M287.88,110.895l-3.941-3.94a.985.985,0,0,0-1.682.7v2.955h-3.94a.985.985,0,1,0,0,1.97h3.94v2.955a.985.985,0,0,0,1.682.7l3.941-3.941A.984.984,0,0,0,287.88,110.895Zm0,0" transform="translate(-264.525 -101.736)" fill="#333"/>
  </g>
</svg>
