<svg xmlns="http://www.w3.org/2000/svg" width="27.122" height="29.296" viewBox="0 0 27.122 29.296">
  <g id="_006-money-back" data-name="006-money-back" transform="translate(-18.993 -0.001)">
    <path id="Path_28" data-name="Path 28" d="M42.305,6.311a13.484,13.484,0,0,0-7.817-4l.846-.846A.858.858,0,0,0,34.121.253L31.947,2.426a.858.858,0,0,0,0,1.214l2.174,2.173A.858.858,0,0,0,35.334,4.6l-.486-.486a11.836,11.836,0,1,1-6.278.464.858.858,0,0,0-.577-1.617,13.565,13.565,0,1,0,14.312,3.35Z" fill="#333"/>
    <path id="Path_29" data-name="Path 29" d="M101.884,129.7a8.818,8.818,0,1,0,8.818-8.818A8.828,8.828,0,0,0,101.884,129.7Zm9.345.764a8.6,8.6,0,0,1-2.471-1.188,2.3,2.3,0,0,1-.764-2.259A2.567,2.567,0,0,1,109.757,125l.037-.01v-.346a.858.858,0,1,1,1.717,0v.291a3.277,3.277,0,0,1,1.187.541.858.858,0,0,1-1.028,1.375,1.566,1.566,0,0,0-1.418-.207.869.869,0,0,0-.57.685.625.625,0,0,0,.136.591,7.827,7.827,0,0,0,1.983.921,2.715,2.715,0,0,1,1.845,3.073,3.087,3.087,0,0,1-.951,1.753,2.949,2.949,0,0,1-1.184.668v.411a.858.858,0,1,1-1.717,0v-.327a3.661,3.661,0,0,1-1.688-.662.858.858,0,0,1,.94-1.437,2.206,2.206,0,0,0,1.6.419,1.317,1.317,0,0,0,1.306-1.11A1,1,0,0,0,111.229,130.459Z" transform="translate(-78.148 -113.959)" fill="#333"/>
  </g>
</svg>
