<svg id="_010-help" data-name="010-help" xmlns="http://www.w3.org/2000/svg" width="23.988" height="23.988" viewBox="0 0 23.988 23.988">
  <path id="Path_39" data-name="Path 39" d="M213.359,205.605a7.778,7.778,0,0,0-4.265-6.926,10.577,10.577,0,0,1-10.414,10.414,7.756,7.756,0,0,0,10.871,3.187l3.775,1.044-1.044-3.775A7.726,7.726,0,0,0,213.359,205.605Zm0,0" transform="translate(-189.371 -189.371)" fill="#f2c828"/>
  <path id="Path_40" data-name="Path 40" d="M18.319,9.159A9.159,9.159,0,1,0,1.27,13.815L.034,18.285,4.5,17.049A9.161,9.161,0,0,0,18.319,9.159ZM7.754,7.028H6.348A2.811,2.811,0,1,1,11.056,9.1L9.862,10.2v1.1H8.457V9.576l1.651-1.511a1.391,1.391,0,0,0,.458-1.038,1.406,1.406,0,1,0-2.811,0Zm.7,5.669H9.862V14.1H8.457Zm0,0" fill="#f2c828"/>
</svg>
