<svg xmlns="http://www.w3.org/2000/svg" width="27.655" height="25.893" viewBox="0 0 27.655 25.893">
  <g id="gift_3_" data-name="gift (3)" transform="translate(0 -16.308)">
    <g id="Group_13301" data-name="Group 13301" transform="translate(1.728 30.102)">
      <g id="Group_13300" data-name="Group 13300">
        <path id="Path_15839" data-name="Path 15839" d="M32,271.692v10.371a1.73,1.73,0,0,0,1.728,1.728h8.642v-12.1Z" transform="translate(-32 -271.692)" fill="#333"/>
      </g>
    </g>
    <g id="Group_13303" data-name="Group 13303" transform="translate(0 16.308)">
      <g id="Group_13302" data-name="Group 13302">
        <path id="Path_15840" data-name="Path 15840" d="M25.926,23.188H20.458a6.715,6.715,0,0,0,.964-.773,3.613,3.613,0,0,0,0-5.085,3.652,3.652,0,0,0-5.069,0c-.75.752-2.738,3.813-2.463,5.858h-.124c.273-2.045-1.715-5.106-2.463-5.858a3.656,3.656,0,0,0-5.069,0,3.618,3.618,0,0,0,0,5.085,6.84,6.84,0,0,0,.966.773H1.728A1.731,1.731,0,0,0,0,24.917v2.593a.865.865,0,0,0,.864.864H12.1V24.917h3.457v3.457H26.791a.865.865,0,0,0,.864-.864V24.917A1.73,1.73,0,0,0,25.926,23.188ZM12,23.131a.57.57,0,0,1-.32.057A8.5,8.5,0,0,1,7.458,21.2a1.885,1.885,0,0,1,0-2.648,1.842,1.842,0,0,1,2.619,0C11.242,19.721,12.4,22.715,12,23.131Zm3.979.057c-.245,0-.318-.055-.318-.057-.4-.417.755-3.41,1.92-4.582A1.862,1.862,0,0,1,20.2,21.2,8.5,8.5,0,0,1,15.976,23.188Z" transform="translate(0 -16.308)" fill="#333"/>
      </g>
    </g>
    <g id="Group_13305" data-name="Group 13305" transform="translate(15.556 30.102)">
      <g id="Group_13304" data-name="Group 13304">
        <path id="Path_15841" data-name="Path 15841" d="M288,271.692v12.1h8.642a1.729,1.729,0,0,0,1.728-1.728V271.692Z" transform="translate(-288 -271.692)" fill="#333"/>
      </g>
    </g>
  </g>
</svg>
