<svg xmlns="http://www.w3.org/2000/svg" width="27.797" height="25.98" viewBox="0 0 27.797 25.98">
  <g id="garage" transform="translate(0 -14.399)">
    <g id="Group_13297" data-name="Group 13297" transform="translate(0 14.399)">
      <path id="Path_15832" data-name="Path 15832" d="M6.913,36.052a1.583,1.583,0,0,1,0-3.167,1.583,1.583,0,0,1,0,3.167ZM19.036,26.6A1.556,1.556,0,0,0,17.3,25.519H10.35A1.559,1.559,0,0,0,8.616,26.6L6.452,31.152H21.237Zm7.525-3.513-9.8-7.72a4.839,4.839,0,0,0-2.9-.965,4.6,4.6,0,0,0-2.9.965l-9.808,7.72A2.7,2.7,0,0,0,0,25.67V38.72a1.645,1.645,0,0,0,1.659,1.659H3.665V33.157a3.633,3.633,0,0,1,.385-1.735l3.166-6.6a2.677,2.677,0,0,1,2.2-1.388h8.957a2.625,2.625,0,0,1,2.2,1.388l3.173,6.6a3.633,3.633,0,0,1,.385,1.735v7.216h2.006A1.645,1.645,0,0,0,27.8,38.714V25.67A2.872,2.872,0,0,0,26.561,23.084Zm-5.828,9.8a1.583,1.583,0,0,0,0,3.167,1.583,1.583,0,1,0,0-3.167ZM7.108,40.335H20.543V37.982H7.108v2.353Z" transform="translate(0 -14.399)" fill="#f2c828"/>
    </g>
  </g>
</svg>
