<svg id="_006-graph" data-name="006-graph" xmlns="http://www.w3.org/2000/svg" width="28.27" height="25.443" viewBox="0 0 28.27 25.443">
  <g id="Group_107" data-name="Group 107" transform="translate(0 0)">
    <path id="Path_250" data-name="Path 250" d="M25.443,25.6a2.821,2.821,0,0,0-2.032,4.784L18.247,40.712a2.736,2.736,0,0,0-.342-.035,2.815,2.815,0,0,0-1.064.211l-4.01-4.509a2.793,2.793,0,0,0,.362-1.356,2.827,2.827,0,1,0-4.961,1.834l-4.9,8.583a2.837,2.837,0,0,0-.505-.051,2.861,2.861,0,1,0,2.133.993l4.9-8.583a2.688,2.688,0,0,0,1.565-.16l4.01,4.509a2.793,2.793,0,0,0-.358,1.356,2.827,2.827,0,1,0,4.859-1.957L25.1,31.219a2.734,2.734,0,0,0,.342.035,2.827,2.827,0,0,0,0-5.654ZM2.827,49.159a.942.942,0,1,1,.942-.942A.942.942,0,0,1,2.827,49.159Zm7.539-13.193a.942.942,0,1,1,.942-.942A.942.942,0,0,1,10.366,35.966ZM17.9,44.447a.942.942,0,1,1,.942-.942A.942.942,0,0,1,17.9,44.447Zm7.539-15.078a.942.942,0,1,1,.942-.942A.942.942,0,0,1,25.443,29.369Z" transform="translate(0 -25.6)" fill="#333"/>
  </g>
</svg>
