<svg xmlns="http://www.w3.org/2000/svg" width="27.655" height="25.98" viewBox="0 0 27.655 25.98">
  <g id="booking_1_" data-name="booking (1)" transform="translate(0 -15.5)">
    <path id="Path_15833" data-name="Path 15833" d="M21.968,15.5H5.687a5.687,5.687,0,0,0-.034,11.374H8.207V22.418A3.623,3.623,0,0,1,11.826,18.8h.008a3.625,3.625,0,0,1,3.611,3.619v4.456h6.523a5.687,5.687,0,0,0,0-11.374Zm1.609,4.894-3.241,3.241a.81.81,0,0,1-1.146,0l-1.62-1.62a.81.81,0,0,1,1.146-1.146l1.048,1.047,2.668-2.668a.81.81,0,1,1,1.146,1.146Z" fill="#333"/>
    <path id="Path_15834" data-name="Path 15834" d="M101.051,115.315l-5.216-.542v-6.194a2,2,0,1,0-4,0v10.366h-.018L89.848,117.3a1.922,1.922,0,1,0-2.464,2.951l4,3.341h11.793v-5.863A2.431,2.431,0,0,0,101.051,115.315Z" transform="translate(-82.011 -86.161)" fill="#333"/>
    <path id="Path_15835" data-name="Path 15835" d="M181.95,453.12a.81.81,0,0,0,.81.81h9.722a.81.81,0,0,0,.81-.81V451.5H181.95Z" transform="translate(-172.122 -412.45)" fill="#333"/>
  </g>
</svg>
