<svg xmlns="http://www.w3.org/2000/svg" width="30.404" height="29.785" viewBox="0 0 30.404 29.785">
  <g id="cart" transform="translate(0 -4.428)">
    <g id="Group_13312" data-name="Group 13312" transform="translate(0 4.428)">
      <g id="Group_13311" data-name="Group 13311" transform="translate(0 0)">
        <circle id="Ellipse_1429" data-name="Ellipse 1429" cx="3.685" cy="3.685" r="3.685" transform="translate(7.084 22.397)" fill="#333"/>
        <path id="Path_15847" data-name="Path 15847" d="M268.691,324.194h0a3.721,3.721,0,1,0,3.339,3.339A3.721,3.721,0,0,0,268.691,324.194Z" transform="translate(-246.115 -301.833)" fill="#333"/>
        <path id="Path_15848" data-name="Path 15848" d="M30.16,12.765a.966.966,0,0,0-.823-.429H25.259v-.072a7.835,7.835,0,1,0-15.67,0h0v.072H6.547L5.51,7.613A1.073,1.073,0,0,0,4.472,6.79H0V8.936H3.613L6.941,24.213a1.038,1.038,0,0,0,1.038.859H26.69a1.073,1.073,0,0,0,1.038-.823l2.647-10.59A1,1,0,0,0,30.16,12.765ZM17.423,17.952a5.689,5.689,0,1,1,5.689-5.689A5.689,5.689,0,0,1,17.423,17.952Z" transform="translate(0 -4.428)" fill="#333"/>
        <path id="Path_15849" data-name="Path 15849" d="M190.386,70.954l-1.968-2-1.538,1.5,2.719,2.755a1.073,1.073,0,0,0,.751.322,1,1,0,0,0,.751-.286l4.508-4.257-1.467-1.574Z" transform="translate(-173.821 -63.011)" fill="#333"/>
      </g>
    </g>
  </g>
</svg>
