<svg xmlns="http://www.w3.org/2000/svg" width="26.952" height="19.075" viewBox="0 0 26.952 19.075">
  <g id="_003-sports-car" data-name="003-sports-car" transform="translate(0 -5.707)">
    <g id="Group_4" data-name="Group 4" transform="translate(0 5.707)">
      <path id="Path_24" data-name="Path 24" d="M26.8,11.61a.693.693,0,0,0-.535-.255H23.639c-.647-1.707-1.491-3.38-2.449-4.012-3.316-2.181-12.111-2.181-15.427,0-.959.632-1.8,2.307-2.45,4.012H.69a.691.691,0,0,0-.676.83L.4,14.068a.69.69,0,0,0,.676.55h.777A4.66,4.66,0,0,0,.737,17.663a4.562,4.562,0,0,0,1.442,3.426c.01.009.021.015.03.024v2.634a1.036,1.036,0,0,0,1.035,1.035H5.664A1.036,1.036,0,0,0,6.7,23.747V22.688H20.253v1.059a1.036,1.036,0,0,0,1.035,1.035h2.419a1.037,1.037,0,0,0,1.035-1.035V21.165a4.735,4.735,0,0,0,.3-6.548h.829a.688.688,0,0,0,.676-.551l.389-1.882A.7.7,0,0,0,26.8,11.61ZM6.9,9.072c2.643-1.74,10.51-1.74,13.151,0a8.533,8.533,0,0,1,1.779,3.366H5.122A8.534,8.534,0,0,1,6.9,9.072ZM3.8,17.923A2.036,2.036,0,1,1,5.84,19.959,2.036,2.036,0,0,1,3.8,17.923Zm17.335,2.036a2.036,2.036,0,1,1,2.036-2.036A2.037,2.037,0,0,1,21.138,19.959Z" transform="translate(0 -5.707)" fill="#333"/>
    </g>
  </g>
</svg>
