<svg xmlns="http://www.w3.org/2000/svg" width="23.903" height="24.5" viewBox="0 0 23.903 24.5">
  <g id="_012-alert" data-name="012-alert" transform="translate(-6.237)">
    <path id="Path_43" data-name="Path 43" d="M61,453.2a.718.718,0,0,0,.718.718H78.944a.718.718,0,0,0,.718-.718V451H61Z" transform="translate(-52.142 -429.419)" fill="#333"/>
    <path id="Path_44" data-name="Path 44" d="M113.178,120A7.186,7.186,0,0,0,106,127.178V134.4h14.355v-7.226A7.186,7.186,0,0,0,113.178,120Z" transform="translate(-94.989 -114.258)" fill="#333"/>
    <path id="Path_45" data-name="Path 45" d="M240.718,4.307a.718.718,0,0,0,.718-.718V.718a.718.718,0,1,0-1.435,0V3.589A.718.718,0,0,0,240.718,4.307Z" transform="translate(-222.577)" fill="#333"/>
    <path id="Path_46" data-name="Path 46" d="M106.413,40.3a.718.718,0,1,0,1.243-.718L106.221,37.1a.718.718,0,1,0-1.243.718Z" transform="translate(-93.924 -34.981)" fill="#333"/>
    <path id="Path_47" data-name="Path 47" d="M10.063,138.626a.718.718,0,0,0-.263-.98L7.314,136.21a.718.718,0,0,0-.718,1.243l2.486,1.436A.718.718,0,0,0,10.063,138.626Z" transform="translate(0 -129.6)" fill="#333"/>
    <path id="Path_48" data-name="Path 48" d="M347.472,40.564a.718.718,0,0,0,.98-.263l1.435-2.486a.718.718,0,1,0-1.243-.718l-1.436,2.486A.718.718,0,0,0,347.472,40.564Z" transform="translate(-324.565 -34.98)" fill="#333"/>
    <path id="Path_49" data-name="Path 49" d="M427.621,136.473a.718.718,0,0,0-.98-.263l-2.486,1.436a.718.718,0,1,0,.718,1.243l2.486-1.436A.718.718,0,0,0,427.621,136.473Z" transform="translate(-397.577 -129.601)" fill="#333"/>
  </g>
</svg>
