<svg xmlns="http://www.w3.org/2000/svg" width="30.831" height="25.894" viewBox="0 0 30.831 25.894">
  <g id="promotion" transform="translate(0 -40.999)">
    <g id="Group_13308" data-name="Group 13308" transform="translate(0 48.677)">
      <g id="Group_13306" data-name="Group 13306" transform="translate(0 0)">
        <path id="Path_15842" data-name="Path 15842" d="M5.961,176.63H1.987c-1.1,0-1.987-.4-1.987-.9V169.4c0-.5.89-.9,1.987-.9H5.961Z" transform="translate(0 -168.501)" fill="#333"/>
      </g>
      <g id="Group_13307" data-name="Group 13307" transform="translate(5.42 11.592)">
        <path id="Path_15843" data-name="Path 15843" d="M93.613,367.625H90.9a.9.9,0,0,1-.9-.9V361h4.516v5.721A.9.9,0,0,1,93.613,367.625Z" transform="translate(-90 -361.001)" fill="#333"/>
      </g>
    </g>
    <g id="Group_13309" data-name="Group 13309" transform="translate(4.516 40.999)">
      <path id="Path_15844" data-name="Path 15844" d="M80.42,141H75.9a.9.9,0,0,0-.9.9v9.635a.9.9,0,0,0,.9.9H80.42Z" transform="translate(-75 -134.979)" fill="#333"/>
      <path id="Path_15845" data-name="Path 15845" d="M210.094,41.164a.9.9,0,0,0-1.12.062A23.168,23.168,0,0,1,195,46.981V58.5a23.168,23.168,0,0,1,13.974,5.755.9.9,0,0,0,1.069.095.927.927,0,0,0,.433-.8V41.924A.924.924,0,0,0,210.094,41.164Z" transform="translate(-187.774 -40.999)" fill="#333"/>
    </g>
    <g id="Group_13310" data-name="Group 13310" transform="translate(29.025 49.131)">
      <path id="Path_15846" data-name="Path 15846" d="M482,176.041v7.221a4.511,4.511,0,0,0,0-7.221Z" transform="translate(-482 -176.041)" fill="#333"/>
    </g>
  </g>
</svg>
