<svg xmlns="http://www.w3.org/2000/svg" width="32" height="20.101" viewBox="0 0 32 20.101">
  <g id="_013-car-collision" data-name="013-car-collision" transform="translate(0 -113.781)">
    <path id="Path_50" data-name="Path 50" d="M19.494,116.49l-2.63,3.446,1.684-4.021a.388.388,0,0,1,.329-.329c.042,0,.078.042.162.078l.246.12.246.12C19.745,116.04,19.7,116.239,19.494,116.49Zm-3.566,3.775.737-5.789c.078-.408-.042-.7-.329-.7h-.821c-.288,0-.408.246-.329.7Zm1.025,6.275a3.35,3.35,0,0,1,.329,1.475v5.459a.4.4,0,0,1-.408.408H14.741a.384.384,0,0,1-.408-.408v-1.354H2.96v1.354a.4.4,0,0,1-.408.408H.408A.384.384,0,0,1,0,133.474v-5.459a3.123,3.123,0,0,1,.329-1.475L3,120.961a2.163,2.163,0,0,1,1.846-1.187h7.551a2.316,2.316,0,0,1,1.893,1.187ZM2.379,126.3H14.851l-1.8-3.854a1.343,1.343,0,0,0-1.475-.9h-6.2a1.286,1.286,0,0,0-1.145.9ZM4.1,129.087a1.333,1.333,0,0,0-1.354-1.313,1.3,1.3,0,0,0-1.313,1.313,1.333,1.333,0,0,0,1.313,1.354A1.365,1.365,0,0,0,4.1,129.087Zm11.734,0a1.333,1.333,0,0,0-1.354-1.313,1.3,1.3,0,0,0-1.313,1.313,1.333,1.333,0,0,0,1.313,1.354A1.361,1.361,0,0,0,15.839,129.087Zm-.816-8.785-1.684-4.021c-.078-.209-.209-.329-.329-.329h-.12c-.042,0-.042.042-.078.042l-.246.12-.209.162c-.209.12-.162.329.042.575Zm16.859,7.88-1.234,4.638-.162.617a.418.418,0,0,1-.492.288l-2.05-.539a.418.418,0,0,1-.288-.492l.162-.617.209-.659L17.889,128.71v-.779a4.571,4.571,0,0,0-.12-1.025,1.336,1.336,0,0,0,1.187-.988,1.354,1.354,0,0,0-.946-1.642,1.486,1.486,0,0,0-1.234.329l-.946-1.971c.042-.042.078-.12.12-.162l4.021-4.68a2.27,2.27,0,0,1,1.563-.737,2.166,2.166,0,0,1,.539.042l7.185,1.846a2.272,2.272,0,0,1,1.516,1.642l1.145,6.076A2.957,2.957,0,0,1,31.882,128.182Zm-1.762-2.128-.779-4.183a1.369,1.369,0,0,0-1.187-1.276l-5.7-1.563a2.371,2.371,0,0,0-.7-.078,1.573,1.573,0,0,0-.946.617l-2.792,3.237Zm-.779,1.313a.5.5,0,0,0-.246-.042h-.246a1.208,1.208,0,0,0-1.109.988,1.333,1.333,0,0,0,.9,1.642,1.34,1.34,0,1,0,.7-2.588Z" fill="#333"/>
  </g>
</svg>
