<svg xmlns="http://www.w3.org/2000/svg" width="35.976" height="22.33" viewBox="0 0 35.976 22.33">
  <g id="license-plate" transform="translate(0 -0.004)">
    <path id="Path_15826" data-name="Path 15826" d="M63.013,32H32V49.371H63.013ZM33.241,33.244h1.241v1.241H33.241Zm1.241,14.886H33.241V46.89h1.241Zm2.481-4.342a1.863,1.863,0,0,0,1.861-1.861h1.241a3.1,3.1,0,0,1-6.2,0V39.447a3.1,3.1,0,0,1,6.2,0H38.823a1.861,1.861,0,1,0-3.722,0v2.481A1.863,1.863,0,0,0,36.962,43.789ZM41.3,40.067h3.722v1.241H41.3Zm8.684-.62a1.849,1.849,0,0,1-.484,1.241,1.846,1.846,0,0,1,.484,1.241v1.241a1.863,1.863,0,0,1-1.861,1.861h-3.1V43.789h3.1a.621.621,0,0,0,.62-.62V41.928a.621.621,0,0,0-.62-.62H46.266V40.067h1.861a.621.621,0,0,0,.62-.62V38.207a.621.621,0,0,0-.62-.62h-3.1V36.346h3.1a1.863,1.863,0,0,1,1.861,1.861Zm6.2,4.342v1.241H51.228v-1.5l3.026-3.026a2.359,2.359,0,0,0,.7-1.679,1.241,1.241,0,1,0-2.481,0v.62H51.228v-.62a2.481,2.481,0,1,1,4.962,0,3.589,3.589,0,0,1-1.059,2.556l-2.406,2.406Zm1.241,0h1.241v-6.2H57.431V36.346h2.481v7.443h1.241v1.241H57.431Zm4.342,4.342H60.532V46.89h1.241Zm0-13.646H60.532V33.244h1.241Zm0,0" transform="translate(-29.519 -29.519)" fill="#f2c828"/>
    <path id="Path_15827" data-name="Path 15827" d="M35.975,0H0v22.33H35.976ZM34.735,21.093H1.241V1.244H34.735Zm0,0" fill="#f2c828"/>
  </g>
</svg>
