<svg xmlns="http://www.w3.org/2000/svg" width="23.417" height="21.861" viewBox="0 0 23.417 21.861">
  <g id="_008-coupon" data-name="008-coupon" transform="translate(0 -17.01)">
    <path id="Path_32" data-name="Path 32" d="M107.922,222.991a1.066,1.066,0,1,0,.79,1.029A.946.946,0,0,0,107.922,222.991Z" transform="translate(-102.233 -196.56)" fill="#333"/>
    <path id="Path_33" data-name="Path 33" d="M259.286,341.981a1.066,1.066,0,1,0,.79,1.03A.947.947,0,0,0,259.286,341.981Z" transform="translate(-246.674 -310.108)" fill="#333"/>
    <path id="Path_34" data-name="Path 34" d="M17.1,23.535c-6.956-6.4-6.6-6.156-7.153-6.371a2.282,2.282,0,0,0-2.367.445L1.139,23.535A3.541,3.541,0,0,0,0,26.136V36.629a2.239,2.239,0,0,0,2.231,2.242H16.007a2.239,2.239,0,0,0,2.231-2.242V26.136A3.542,3.542,0,0,0,17.1,23.535ZM8.455,21.286a.686.686,0,1,1,.548.74A.686.686,0,0,1,8.455,21.286ZM3.528,27.46a2.293,2.293,0,0,1,2.162-2.4,2.415,2.415,0,0,1,0,4.8,2.294,2.294,0,0,1-2.162-2.4Zm3.933,7.3a.687.687,0,0,1-.632-.952l3.34-7.96a.686.686,0,0,1,1.266.531l-3.34,7.96a.686.686,0,0,1-.633.421Zm5.151.542a2.415,2.415,0,0,1,0-4.8,2.415,2.415,0,0,1,0,4.8Z" fill="#333"/>
    <path id="Path_35" data-name="Path 35" d="M293.816,49.031c-2.234-6.5-3.474-10.118-3.492-10.159a3.5,3.5,0,0,0-2.07-1.918c-.053-.018.261.058-4.715-1.122l5.059,4.655a4.916,4.916,0,0,1,1.583,3.61v8.891l2.468-1.057A2.228,2.228,0,0,0,293.816,49.031Z" transform="translate(-270.571 -17.96)" fill="#333"/>
  </g>
</svg>
