<svg xmlns="http://www.w3.org/2000/svg" width="22.471" height="22.473" viewBox="0 0 22.471 22.473">
  <g id="support" transform="translate(-0.021)">
    <path id="Path_15828" data-name="Path 15828" d="M.794,17.768l10.1-10.1A5.928,5.928,0,0,1,17.664.1a12.031,12.031,0,0,1,1.943.63L17.3,2.965l.438,1.747,1.732.494,2.321-2.272c.161.445.34.889.471,1.344a5.929,5.929,0,0,1-7.436,7.314l-10.1,10.1a2.865,2.865,0,0,1-3.927,0,2.878,2.878,0,0,1,0-3.927Z" transform="translate(0 0)" fill="#333"/>
  </g>
</svg>
