<svg xmlns="http://www.w3.org/2000/svg" width="23.921" height="23.921" viewBox="0 0 23.921 23.921">
  <path id="Path_13014" data-name="Path 13014" d="M11.961,0A11.961,11.961,0,1,0,23.921,11.961,11.986,11.986,0,0,0,11.961,0Zm0,2.85a9.125,9.125,0,0,1,9,7.709h-2.43a5.509,5.509,0,0,1-4.017-1.7,3.507,3.507,0,0,0-5.111,0,5.509,5.509,0,0,1-4.017,1.7H2.958a9.125,9.125,0,0,1,9-7.709Zm0,11.914a2.1,2.1,0,1,1,2.1-2.1A2.1,2.1,0,0,1,11.961,14.764Zm-8.484.518a5.533,5.533,0,0,1,2.176-.518A4.209,4.209,0,0,1,9.811,19.6h0a4.191,4.191,0,0,1-.332,1.128A9.153,9.153,0,0,1,3.477,15.282Zm10.968,5.445a4.18,4.18,0,0,1-.333-1.128h0a4.21,4.21,0,0,1,5.156-4.716,10.239,10.239,0,0,1,1.178.4A9.152,9.152,0,0,1,14.445,20.727Z" fill="#1f1f1f"/>
</svg>
