<svg xmlns="http://www.w3.org/2000/svg" width="13" height="22.986" viewBox="0 0 13 22.986">
  <path id="繳費紀錄" d="M16.478,14.588c-2.9-.753-3.831-1.532-3.831-2.746,0-1.392,1.29-2.362,3.448-2.362,2.273,0,3.116,1.085,3.193,2.682H22.11A5.09,5.09,0,0,0,18.01,7.3V4.5H14.179V7.258C11.7,7.795,9.71,9.4,9.71,11.868c0,2.95,2.439,4.418,6,5.274,3.193.766,3.831,1.89,3.831,3.078,0,.881-.626,2.286-3.448,2.286-2.631,0-3.665-1.175-3.805-2.682H9.48c.153,2.8,2.248,4.367,4.7,4.891v2.771H18.01V24.741c2.49-.472,4.47-1.916,4.47-4.533C22.48,16.581,19.377,15.342,16.478,14.588Z" transform="translate(-9.48 -4.5)" fill="#333"/>
</svg>
