<svg xmlns="http://www.w3.org/2000/svg" width="37.703" height="37.883" viewBox="0 0 37.703 37.883">
  <g id="_001-profits" data-name="001-profits" transform="translate(-2.369 -2)">
    <path id="Path_60" data-name="Path 60" d="M56,12h3.794V34.129H56Z" transform="translate(-19.722 -3.677)" fill="#a2405b"/>
    <path id="Path_61" data-name="Path 61" d="M47,2h3.794V30.452H47Z" transform="translate(-16.412)" fill="#a2405b"/>
    <path id="Path_62" data-name="Path 62" d="M38,24h3.794V38.542H38Z" transform="translate(-13.103 -8.09)" fill="#a2405b"/>
    <path id="Path_63" data-name="Path 63" d="M13.19,16.595a5.257,5.257,0,0,1-1.177-4.743l1.226.306a4,4,0,0,0,1.045,3.772L15.4,17.043c.047,0,.094.006.141.007l.543-.543a5.437,5.437,0,0,0,1.6-3.87h1.265a6.684,6.684,0,0,1-1.5,4.237,7.6,7.6,0,0,0,5.926-7.4V8.734A.632.632,0,0,0,22.3,8.287l-1.3,1.3a1.9,1.9,0,0,1-2.781-.107L16.268,7.213a.649.649,0,0,0-.961,0L13.362,9.482a1.9,1.9,0,0,1-2.781.107l-1.3-1.3A.6.6,0,0,0,8.845,8.1a.681.681,0,0,0-.254.05.621.621,0,0,0-.391.584v.741a7.593,7.593,0,0,0,4.989,7.119Z" transform="translate(-2.145 -1.839)" fill="#a2405b"/>
    <path id="Path_64" data-name="Path 64" d="M8.688,25.7a8.85,8.85,0,0,0-3.9,7.33c0,.021,0,.043,0,.065L3.86,42.077a4.873,4.873,0,0,1-.118,1.037A3.666,3.666,0,0,0,7.32,47.574H19.966a3.666,3.666,0,0,0,3.578-4.461,4.929,4.929,0,0,1-.118-1.036L22.5,33.1c0-.021,0-.043,0-.065a8.858,8.858,0,0,0-7.54-8.744,10.906,10.906,0,0,1-.769-1.067.633.633,0,0,0-.807-.248c-2.15.993-8.13,2.965-9.958.224l-1.051.7c1.33,1.995,3.924,2.175,6.319,1.8Zm1.794,13.021h1.265v.316a1.582,1.582,0,0,0,1.581,1.581h.632a1.581,1.581,0,0,0,0-3.161h-.632a2.837,2.837,0,0,1-.316-5.658V29.87h1.265V31.8A2.839,2.839,0,0,1,16.8,34.612v.316H15.54v-.316a1.582,1.582,0,0,0-1.581-1.581h-.632a1.581,1.581,0,0,0,0,3.161h.632a2.837,2.837,0,0,1,.316,5.658v1.929H13.011V41.85a2.839,2.839,0,0,1-2.529-2.813Z" transform="translate(0 -7.691)" fill="#a2405b"/>
  </g>
</svg>
