<svg xmlns="http://www.w3.org/2000/svg" width="18.965" height="21.187" viewBox="0 0 18.965 21.187">
  <g id="_007-user" data-name="007-user" transform="translate(-24.165)">
    <g id="Group_11" data-name="Group 11" transform="translate(28.148)">
      <g id="Group_10" data-name="Group 10" transform="translate(0)">
        <path id="Path_30" data-name="Path 30" d="M116.292,0a5.5,5.5,0,1,0,5.5,5.5A5.516,5.516,0,0,0,116.292,0Z" transform="translate(-110.791)" fill="#fff"/>
      </g>
    </g>
    <g id="Group_13" data-name="Group 13" transform="translate(24.165 11.396)">
      <g id="Group_12" data-name="Group 12" transform="translate(0)">
        <path id="Path_31" data-name="Path 31" d="M43.089,251.843a5.129,5.129,0,0,0-.552-1.009,6.838,6.838,0,0,0-4.732-2.979,1.012,1.012,0,0,0-.7.168,5.864,5.864,0,0,1-6.918,0,.9.9,0,0,0-.7-.168,6.788,6.788,0,0,0-4.732,2.979,5.913,5.913,0,0,0-.552,1.009.511.511,0,0,0,.024.456,9.585,9.585,0,0,0,.649.961,9.13,9.13,0,0,0,1.105,1.249,14.391,14.391,0,0,0,1.105.961,10.955,10.955,0,0,0,13.068,0,10.56,10.56,0,0,0,1.105-.961,11.093,11.093,0,0,0,1.105-1.249,8.422,8.422,0,0,0,.649-.961A.41.41,0,0,0,43.089,251.843Z" transform="translate(-24.165 -247.841)" fill="#fff"/>
      </g>
    </g>
  </g>
</svg>
