<svg xmlns="http://www.w3.org/2000/svg" width="16.819" height="18.789" viewBox="0 0 16.819 18.789">
  <g id="_007-user" data-name="007-user" transform="translate(-24.165)">
    <g id="Group_11" data-name="Group 11" transform="translate(27.697)">
      <g id="Group_10" data-name="Group 10" transform="translate(0)">
        <path id="Path_30" data-name="Path 30" d="M115.669,0a4.878,4.878,0,1,0,4.878,4.878A4.891,4.891,0,0,0,115.669,0Z" transform="translate(-110.791)" fill="#333"/>
      </g>
    </g>
    <g id="Group_13" data-name="Group 13" transform="translate(24.165 10.106)">
      <g id="Group_12" data-name="Group 12" transform="translate(0)">
        <path id="Path_31" data-name="Path 31" d="M40.948,251.39a4.549,4.549,0,0,0-.49-.895,6.064,6.064,0,0,0-4.2-2.642.9.9,0,0,0-.618.149,5.2,5.2,0,0,1-6.135,0,.8.8,0,0,0-.618-.149,6.02,6.02,0,0,0-4.2,2.642,5.244,5.244,0,0,0-.49.895.453.453,0,0,0,.021.4,8.5,8.5,0,0,0,.575.852,8.1,8.1,0,0,0,.98,1.108,12.762,12.762,0,0,0,.98.852,9.715,9.715,0,0,0,11.589,0,9.364,9.364,0,0,0,.98-.852,9.838,9.838,0,0,0,.98-1.108,7.468,7.468,0,0,0,.575-.852A.364.364,0,0,0,40.948,251.39Z" transform="translate(-24.165 -247.841)" fill="#333"/>
      </g>
    </g>
  </g>
</svg>
