<svg id="g4158" xmlns="http://www.w3.org/2000/svg" width="39.985" height="12.94" viewBox="0 0 39.985 12.94">
  <path id="polygon9" d="M436.746,123.254h-3.239l2.026-12.527h3.239Z" transform="translate(-419.419 -110.5)" fill="#00579f"/>
  <path id="path11" d="M574.895,105.581a7.983,7.983,0,0,0-2.905-.533c-3.2,0-5.451,1.706-5.465,4.144-.027,1.8,1.613,2.8,2.839,3.4,1.253.613,1.679,1.013,1.679,1.56-.013.839-1.013,1.226-1.945,1.226a6.447,6.447,0,0,1-3.039-.666l-.426-.2-.453,2.812a9.858,9.858,0,0,0,3.612.667c3.4,0,5.611-1.679,5.637-4.278.013-1.426-.853-2.519-2.719-3.412-1.133-.573-1.827-.96-1.827-1.546.013-.533.587-1.079,1.866-1.079a5.5,5.5,0,0,1,2.413.48l.293.133.44-2.7Z" transform="translate(-545.827 -105.048)" fill="#00579f"/>
  <path id="path13" d="M795.533,118.816c.267-.72,1.293-3.5,1.293-3.5-.013.027.266-.733.426-1.2l.226,1.079s.613,3,.747,3.625Zm4-8.089h-2.505a1.6,1.6,0,0,0-1.693,1.039l-4.811,11.487h3.4l.68-1.879h4.159c.093.44.387,1.879.387,1.879h3l-2.613-12.527Z" transform="translate(-762.16 -110.5)" fill="#00579f"/>
  <path id="path15" d="M173.832,110.727l-3.172,8.542-.347-1.732a9.588,9.588,0,0,0-4.478-5.251l2.906,10.955h3.425l5.091-12.513Z" transform="translate(-162.45 -110.5)" fill="#00579f"/>
  <path id="path17" d="M86.43,110.727H81.219l-.053.253c4.065,1.04,6.757,3.545,7.863,6.557L87.9,111.78a1.34,1.34,0,0,0-1.466-1.053Z" transform="translate(-81.166 -110.5)" fill="#faa61a"/>
</svg>
