<svg id="Layer_1" data-name="Layer 1" xmlns="http://www.w3.org/2000/svg" viewBox="0 0 1056.13 298.06"><defs><style>.cls-1{fill:#fdc901;}.cls-2{fill:#3e3a39;}</style></defs><polygon class="cls-1" points="131.63 298.06 0 223.58 0 74.48 131.63 0 263.26 74.48 263.26 223.58 131.63 298.06"/><polygon points="190.13 131.49 190.13 115.93 160.91 99.31 160.91 114.94 190.13 131.49"/><polygon points="160.91 125.48 160.91 132.48 160.91 138.7 190.13 155.25 190.13 149.03 190.13 142.03 160.91 125.48"/><polygon points="160.91 149.24 160.91 165.58 160.91 165.58 131.63 149.03 131.63 149.03 102.35 165.58 102.35 132.48 102.35 99.31 73.14 115.93 73.14 149.03 73.14 182.13 102.35 198.75 131.63 182.13 160.91 198.75 190.13 182.13 190.13 165.86 160.91 149.24"/><path d="M131.63,278,17.89,213.61V84.52L131.63,20.16,245.37,84.52v129ZM32.54,205.05l99.09,56.09,99.09-56.09V93L131.63,36.92,32.54,93Z"/><path class="cls-2" d="M492.16,206.38a5.16,5.16,0,0,1-3.3-2.2l-3.43-4.88h14.13c7.43,0,12.14-1.82,14.07-5.47a27.29,27.29,0,0,0,2.91-13V132.15H457.4V125.3h62V108.56H502V98.43h16.27V82H502V74.83H481.46V82H412.19V75.38H391.61V82h-17V98.43h17v10.13H374.84V125.3h61.65v6.85H377.56V199.3h38.52l-3.84,4.63a12,12,0,0,1-4.76,3.68c-1.88.78-4.77,1.19-8.71,1.19H377.32v14.43h25.83a99,99,0,0,0,13.31-.57,15.84,15.84,0,0,0,6.59-2.7q3.13-2.16,11.67-13.25l5.75-7.41h21.2l9.09,15.25a16.22,16.22,0,0,0,5.23,5.69,12.7,12.7,0,0,0,6.15,2q3.14.16,16.93.16h20.66V206.9H500.05A38.92,38.92,0,0,1,492.16,206.38Zm-55.67-23.11H398l-.17-10.21h38.68Zm0-25.37H398.14V148h38.35ZM496,148v9.88H457.4V148Zm-83.78-39.46V98.43h69.27v10.13Zm45.21,74.71V173.06h39.22l-.14,4.33c-.16,3.92-2.12,5.88-5.82,5.88Z"/><path class="cls-2" d="M657.67,74.34H636.61l-3.43,5.42A11.63,11.63,0,0,1,630.51,83a5.25,5.25,0,0,1-3.08.76h-2.85v15h.32l14,.08a10.71,10.71,0,0,0,4.27-.93,14.88,14.88,0,0,0,3.78-3.32h26.57l-12.11,10-5.91-3.67H629.56L647.25,115,641,119.36a27.18,27.18,0,0,1-4.58,2.86,83.6,83.6,0,0,1-8.57.19h-2.23v16.44h2.47q15.24,0,17.94-.57c1.8-.36,4.76-2.26,8.85-5.66l8.14-6.7L676,134.85Q680.41,138,689,138h9.5V121.13l-4.46.08c-4.41.08-7.73-.68-10-2.34l-6.23-4.46,21.42-18.92V78.15H655.82Z"/><polygon class="cls-2" points="672.43 138.47 653.05 138.47 653.05 145.3 625.61 145.3 625.61 161.74 653.05 161.74 653.05 171.49 625.61 171.49 625.61 188.23 653.05 188.23 653.05 197.29 624.9 197.29 624.9 213.73 653.05 213.73 653.05 223.61 672.43 223.61 672.43 213.73 699.29 213.73 699.29 197.29 672.43 197.29 672.43 188.23 699.29 188.23 699.29 171.49 672.43 171.49 672.43 161.74 699.29 161.74 699.29 145.3 672.43 145.3 672.43 138.47"/><path class="cls-2" d="M605.93,199.09a4.29,4.29,0,0,1-1.06,2.85,4.58,4.58,0,0,1-3.65,1.28h-5.88V171.08h9.72q11.15,0,13.31-6.15a36.68,36.68,0,0,0,2.23-11.71V86.4H595.34V74.53H580V86.4H554.41v84.68H580v32.14H555.55v17.86H608.9a13.19,13.19,0,0,0,6.86-1.91,9.14,9.14,0,0,0,4.13-4.62,26,26,0,0,0,1-8.06V186H605.93Zm-10.59-95.62h8.6V149c0,2.34-.32,3.89-1,4.6s-2,1.09-4,1.09h-3.6ZM580,154.64H569.4V103.47H580Z"/><path class="cls-2" d="M873.87,78.64H807.51V203h-1.44v-1.61h-1.74a1.74,1.74,0,0,1-1.66-1.22,13.37,13.37,0,0,1-.6-4.11l-2.53-60.54H782.77l3.43,64.18a59.32,59.32,0,0,0,.85,8.17,17.68,17.68,0,0,0,3.23,7.24c1.69,2.37,5.5,3.54,11.41,3.54h2.07V220h74.55V203h-4.44ZM855.2,203H826.49V177.77H855.2Zm0-42.27H826.49V136.32H855.2Zm0-41.46H826.49V95.71H855.2Z"/><path class="cls-2" d="M737.4,195.87a13.88,13.88,0,0,1-.65,4.11,1.71,1.71,0,0,1-1.58,1.23h-2.86V218.6h5.5c6.18,0,10-1.28,11.48-3.84a24.25,24.25,0,0,0,3-8.13,61.87,61.87,0,0,0,.9-7.11l3.37-64.18H739.88Z"/><path class="cls-2" d="M801.28,109.75H779V99.14h1.12a49.25,49.25,0,0,0,10.7-.93A10.4,10.4,0,0,0,797,94.76a14.75,14.75,0,0,0,2.78-5.94,31.68,31.68,0,0,0,.76-7.13V75H781.11v2.7a5.57,5.57,0,0,1-.76,3.43c-.49.62-1.61.95-3.29.95H733.67V99.14h26.7v10.61h-27.6v17.48h27.6v95.54H779V127.23h22.24Z"/><path class="cls-2" d="M1056.13,98V81.83H996.39v-7h-20v7H915.93V98h60.45v11.49H915.93v78.88h60.45v10.75H915.93v17.48h60.45v7.1h20v-7.1h59.74V199.14H996.39V188.39h41.86c6,0,10.4-1.82,13.17-5.5s4.14-8.71,4.14-15.08v-58.3H996.39V98Zm-79.75,73.63H935.72V156.24h40.66Zm0-31.6H935.72V125.7h40.66Zm59.34,24.82c0,2.51-.44,4.25-1.31,5.26s-2.56,1.52-5,1.52h-33V156.24h39.33Zm0-39.17v14.35H996.39V125.7Z"/></svg>